<!DOCTYPE svg PUBLIC "-//W3C//DTD SVG 1.1//EN" "http://www.w3.org/Graphics/SVG/1.1/DTD/svg11.dtd">
<!-- Uploaded to: SVG Repo, www.svgrepo.com, Transformed by: SVG Repo Mixer Tools -->
<svg fill="#ff0064" height="800px" width="800px" version="1.1" id="Layer_1" xmlns="http://www.w3.org/2000/svg" xmlns:xlink="http://www.w3.org/1999/xlink" viewBox="0 0 512 512" xml:space="preserve" stroke="#ff0064" transform="rotate(0)">
<g id="SVGRepo_bgCarrier" stroke-width="0"/>
<g id="SVGRepo_tracerCarrier" stroke-linecap="round" stroke-linejoin="round" stroke="#f70063" stroke-width="15.36"> <g> <g> <path d="M256,0C169.587,0,98.297,66.021,89.889,150.261h332.221C413.703,66.021,342.413,0,256,0z"/> </g> </g> <g> <g> <path d="M272.696,183.651v99.812c0,9.215-7.31,17.047-16.525,17.058c-0.057,0-0.114,0-0.17,0s-0.114,0-0.17,0 c-9.215-0.011-16.859-7.844-16.859-17.058v-99.811H89.977c0.973,9.74,1.673,14.032,4.321,25.055c0,0,44.848,187.9,45.059,189.168 l12.043,72.272C155.426,494.298,176.323,512,200.807,512H311.19c24.486,0,45.383-17.703,49.408-41.856l11.954-71.733 l45.469-191.004c0.039-0.165,0.032-0.326,0.066-0.491c2.626-10.471,3.27-16.532,3.939-23.265H272.696z M239.304,378.435h-69.551 l-20.02-82.685c25.032,20.61,56.003,33.975,89.571,37.273V378.435z M342.989,378.435H272.25v-45.412 c33.735-3.335,65.382-16.867,90.533-37.737L342.989,378.435z"/> </g> </g> </g>
<g id="SVGRepo_iconCarrier"> <g> <g> <path d="M256,0C169.587,0,98.297,66.021,89.889,150.261h332.221C413.703,66.021,342.413,0,256,0z"/> </g> </g> <g> <g> <path d="M272.696,183.651v99.812c0,9.215-7.31,17.047-16.525,17.058c-0.057,0-0.114,0-0.17,0s-0.114,0-0.17,0 c-9.215-0.011-16.859-7.844-16.859-17.058v-99.811H89.977c0.973,9.74,1.673,14.032,4.321,25.055c0,0,44.848,187.9,45.059,189.168 l12.043,72.272C155.426,494.298,176.323,512,200.807,512H311.19c24.486,0,45.383-17.703,49.408-41.856l11.954-71.733 l45.469-191.004c0.039-0.165,0.032-0.326,0.066-0.491c2.626-10.471,3.27-16.532,3.939-23.265H272.696z M239.304,378.435h-69.551 l-20.02-82.685c25.032,20.61,56.003,33.975,89.571,37.273V378.435z M342.989,378.435H272.25v-45.412 c33.735-3.335,65.382-16.867,90.533-37.737L342.989,378.435z"/> </g> </g> </g>
</svg>