<?xml version="1.0"?>
<svg width="122.88" height="122.88" xmlns="http://www.w3.org/2000/svg" xmlns:svg="http://www.w3.org/2000/svg" enable-background="new 0 0 122.88 122.88" version="1.1" xml:space="preserve">
 <style type="text/css">.st0{fill-rule:evenodd;clip-rule:evenodd;}</style>
 <defs>
  <linearGradient fx="0.07" fy="0.93" id="svg_8" x1="0" x2="0.32" y1="1" y2="0.57">
   <stop id="jq_stop_8058" offset="0" stop-color="#ffffff"/>
   <stop id="jq_stop_1226" offset="1" stop-color="#ff0000" stop-opacity="1"/>
  </linearGradient>
 </defs>
 <g class="layer">
  <title>Layer 1</title>
  <path class="st0" d="m16.46,105.37c0.01,-4 2.29,-7.9 6,-12.27l-21.48,-13.52c-1.35,-0.58 -1.32,-1.41 -0.54,-2.38l4.55,-3.87c0.83,-0.51 1.7,-0.72 2.65,-0.47l26.51,4.46l22.09,-23.82l-51.56,-34.73c-1.3,-0.76 -1.41,-1.63 -0.07,-2.63l7.44,-5.91l67.21,18.81l19.86,-21.14c6.66,-5.74 13.13,-8.31 18.1,-7.09c2.74,0.67 3.7,1.49 4.55,4.05c1.64,5.02 -0.91,11.76 -6.93,18.7l-21.23,19.77l18.89,66.92l-5.93,7.41c-1.01,1.33 -1.87,1.22 -2.64,-0.07l-34.89,-51.33l-23.92,21.98l4.48,26.39c0.26,0.93 0.05,1.8 -0.47,2.64l-3.88,4.53c-0.97,0.78 -1.8,0.81 -2.39,-0.54l-13.58,-21.39c-4.41,3.71 -8.33,5.98 -12.37,5.98c-0.37,-0.01 -0.45,-0.14 -0.45,-0.5l0,0z" fill="url(#svg_8)" id="svg_2" transform="rotate(-90, 61.0854, 61.439)"/>
 </g>
</svg>